#!OML:ASF I:\golf\golf\golf 2\Subject 1\2002-09-07\Subject1.ASF
:FULLY-SPECIFIED
:DEGREES
80
root -8.8579 17.9326 5.67777 -25.4533 83.9263 -39.8893
lowerback 5.3217 0.690761 0.182037
upperback 5.59962 1.06422 4.5625
thorax 2.71908 0.537285 4.59842
lowerneck -11.2172 0.426908 2.86879
upperneck 44.2426 5.2805 -5.60451
head 19.0383 2.61618 -2.01256
rclavicle -1.59028e-014 -1.11319e-014
rhumerus -19.8864 45.2501 -99.6312
rradius 55.1406
rwrist -64.3407
rhand -38.2586 -18.3772
rfingers 7.12502
rthumb -11.2887 -48.0535
lclavicle -1.59028e-014 -1.11319e-014
lhumerus -17.3622 -47.8539 106.631
lradius 53.3609
lwrist 66.1978
lhand -14.2447 66.9951
lfingers 7.12502
lthumb -168.107 83.3627
rfemur -29.1171 -0.398389 15.3192
rtibia 27.7597
rfoot -7.80762 -3.60453
rtoes -1.927
lfemur -27.4517 4.06059 -9.5161
ltibia 28.3401
lfoot -11.5515 -2.25532
ltoes -16.6618
81
root -8.858 17.9331 5.67779 -25.5904 83.9169 -40.0323
lowerback 5.27794 0.683921 0.225391
upperback 5.62403 1.05496 4.54839
thorax 2.77052 0.533814 4.56063
lowerneck -11.1882 0.432861 2.88304
upperneck 44.1948 5.28069 -5.61732
head 18.9997 2.61591 -2.0207
rclavicle 2.38542e-015 2.14687e-014
rhumerus -19.8028 45.1669 -99.6634
rradius 55.033
rwrist -64.2045
rhand -38.7096 -17.891
rfingers 7.12502
rthumb -11.7236 -47.5429
lclavicle 2.38542e-015 2.14687e-014
lhumerus -17.2917 -47.8354 106.557
lradius 53.3319
lwrist 66.159
lhand -14.1301 66.9165
lfingers 7.12502
lthumb -167.996 83.4477
rfemur -29.1222 -0.382612 15.3293
rtibia 27.7541
rfoot -7.85079 -3.58279
rtoes -1.17017
lfemur -27.4395 4.04388 -9.48955
ltibia 28.3155
lfoot -11.5246 -2.22511
ltoes -16.6146
82
root -8.85908 17.9331 5.67916 -25.3838 83.9264 -39.8392
lowerback 5.24537 0.67917 0.174544
upperback 5.63243 1.04571 4.54802
thorax 2.79751 0.52695 4.59016
lowerneck -11.1859 0.437992 2.85309
upperneck 44.2 5.29258 -5.60178
head 19.0017 2.61744 -2.00554
rclavicle -1.51076e-014 -4.21423e-014
rhumerus -19.7853 45.1841 -99.6878
rradius 54.9893
rwrist -64.1481
rhand -39.088 -18.0646
rfingers 7.12502
rthumb -12.0885 -47.6954
lclavicle -1.51076e-014 -4.21423e-014
lhumerus -17.2681 -47.7517 106.535
lradius 53.2825
lwrist 65.9952
lhand -13.8147 66.6843
lfingers 7.12502
lthumb -167.692 83.6979
rfemur -29.1485 -0.427397 15.3252
rtibia 27.7485
rfoot -7.84268 -3.55479
rtoes -1.45306
lfemur -27.4553 4.03987 -9.50667
ltibia 28.3019
lfoot -11.5069 -2.23335
ltoes -16.4717
83
root -8.86017 17.9335 5.68025 -25.2025 83.8949 -39.6351
lowerback 5.26136 0.702018 0.12335
upperback 5.6434 1.07524 4.57001
thorax 2.79674 0.539781 4.64141
lowerneck -11.2161 0.431259 2.78831
upperneck 44.2315 5.29311 -5.56596
head 19.0272 2.61166 -1.97628
rclavicle 1.55052e-014 2.78299e-014
rhumerus -19.8057 45.2029 -99.6596
rradius 55.0051
rwrist -64.1332
rhand -38.2359 -18.6374
rfingers 7.12502
rthumb -11.2668 -48.3148
lclavicle 1.55052e-014 2.78299e-014
lhumerus -17.2887 -47.7571 106.573
lradius 53.2721
lwrist 65.9224
lhand -13.7399 66.644
lfingers 7.12502
lthumb -167.62 83.7425
rfemur -29.1371 -0.448112 15.3474
rtibia 27.7509
rfoot -7.80886 -3.52351
rtoes -1.92248
lfemur -27.4251 4.1087 -9.52126
ltibia 28.2867
lfoot -11.4777 -2.23401
ltoes -16.6174
84
root -8.86041 17.9332 5.68092 -25.0175 83.8676 -39.4242
lowerback 5.28789 0.730506 0.099082
upperback 5.64061 1.11323 4.57281
thorax 2.77557 0.558192 4.65637
lowerneck -11.2312 0.414915 2.77807
upperneck 44.2779 5.27602 -5.5507
head 19.0594 2.60685 -1.97075
rclavicle 2.34566e-014 5.64548e-014
rhumerus -19.8345 45.1326 -99.656
rradius 55.02
rwrist -64.1197
rhand -37.939 -18.8666
rfingers 7.12502
rthumb -10.9805 -48.5594
lclavicle 2.34566e-014 5.64548e-014
lhumerus -17.3328 -47.7622 106.634
lradius 53.202
lwrist 65.8015
lhand -13.6262 66.3356
lfingers 7.12502
lthumb -167.511 84.0576
rfemur -29.1216 -0.490724 15.3745
rtibia 27.752
rfoot -7.78654 -3.50634
rtoes -2.61983
lfemur -27.3821 4.19291 -9.54762
ltibia 28.2693
lfoot -11.455 -2.23961
ltoes -16.9035
85
root -8.86143 17.9334 5.68035 -24.8247 83.8802 -39.2155
lowerback 5.32845 0.747863 0.118081
upperback 5.62957 1.13778 4.53022
thorax 2.7402 0.572009 4.59897
lowerneck -11.2501 0.398683 2.85695
upperneck 44.3254 5.24154 -5.56025
head 19.0959 2.60671 -1.99732
rclavicle -2.70347e-014 -1.59028e-014
rhumerus -19.8341 45.0077 -99.7096
rradius 55.0181
rwrist -64.1255
rhand -38.0208 -18.8728
rfingers 7.12502
rthumb -11.0594 -48.5614
lclavicle -2.70347e-014 -1.59028e-014
lhumerus -17.3542 -47.7606 106.651
lradius 53.0742
lwrist 65.4932
lhand -13.2832 65.8647
lfingers 7.12502
lthumb -167.18 84.549
rfemur -29.106 -0.550658 15.3679
rtibia 27.7379
rfoot -7.74063 -3.48053
rtoes -2.67162
lfemur -27.3604 4.1809 -9.58343
ltibia 28.2618
lfoot -11.4899 -2.20434
ltoes -17.3364
86
root -8.86327 17.9347 5.67947 -24.7159 83.8725 -39.0766
lowerback 5.3759 0.737786 0.130642
upperback 5.64581 1.12626 4.51189
thorax 2.73203 0.567208 4.57246
lowerneck -11.2687 0.417459 2.89865
upperneck 44.3216 5.27457 -5.60206
head 19.1054 2.62041 -2.01945
rclavicle -5.56597e-015 -2.3059e-014
rhumerus -19.8168 45.0465 -99.7478
rradius 55.0273
rwrist -64.205
rhand -38.124 -18.7457
rfingers 7.12502
rthumb -11.1589 -48.4289
lclavicle -5.56597e-015 -2.3059e-014
lhumerus -17.3132 -47.6989 106.599
lradius 53.047
lwrist 65.3247
lhand -13.2273 65.8838
lfingers 7.12502
lthumb -167.126 84.5333
rfemur -29.0723 -0.551804 15.3522
rtibia 27.7159
rfoot -7.71569 -3.45583
rtoes -1.74235
lfemur -27.3221 4.13612 -9.58323
ltibia 28.2591
lfoot -11.5473 -2.15788
ltoes -17.7246
87
root -8.86398 17.9351 5.67809 -24.732 83.8467 -39.0645
lowerback 5.40582 0.715771 0.11894
upperback 5.66089 1.09797 4.53898
thorax 2.73285 0.552564 4.60833
lowerneck -11.2479 0.450182 2.85679
upperneck 44.2908 5.34589 -5.63068
head 19.0859 2.63719 -2.01197
rclavicle -6.75868e-015 1.35174e-014
rhumerus -19.827 45.1386 -99.7582
rradius 55.0077
rwrist -64.2476
rhand -38.1112 -18.5638
rfingers 7.12502
rthumb -11.1466 -48.2477
lclavicle -6.75868e-015 1.35174e-014
lhumerus -17.2605 -47.5418 106.575
lradius 52.8951
lwrist 64.9489
lhand -12.5545 65.0589
lfingers 7.12502
lthumb -166.477 85.4002
rfemur -29.0494 -0.609082 15.3836
rtibia 27.7079
rfoot -7.68766 -3.42427
rtoes -2.58526
lfemur -27.2871 4.19224 -9.5741
ltibia 28.2526
lfoot -11.5651 -2.2618
ltoes -17.0122
88
root -8.86485 17.9347 5.67587 -24.7251 83.8681 -39.0358
lowerback 5.44771 0.710433 0.120132
upperback 5.65551 1.09246 4.54287
thorax 2.70426 0.550265 4.61104
lowerneck -11.2563 0.440639 2.84923
upperneck 44.3116 5.34506 -5.64487
head 19.1026 2.63466 -2.01798
rclavicle -1.70955e-014 -6.75868e-014
rhumerus -19.8413 45.0399 -99.7682
rradius 54.9825
rwrist -64.1282
rhand -38.0315 -18.6209
rfingers 7.12502
rthumb -11.0696 -48.309
lclavicle -1.70955e-014 -6.75868e-014
lhumerus -17.2655 -47.5562 106.615
lradius 52.9299
lwrist 65.2209
lhand -12.8322 65.2683
lfingers 7.12502
lthumb -166.745 85.1731
rfemur -29.0332 -0.696762 15.3898
rtibia 27.7176
rfoot -7.63477 -3.40474
rtoes -4.38191
lfemur -27.2757 4.25451 -9.61167
ltibia 28.2438
lfoot -11.5589 -2.39035
ltoes -16.2258
89
root -8.86698 17.9338 5.67456 -24.4322 83.9085 -38.748
lowerback 5.47248 0.725812 0.0951241
upperback 5.63818 1.11268 4.53215
thorax 2.67047 0.559938 4.6124
lowerneck -11.3081 0.399944 2.85151
upperneck 44.3734 5.30251 -5.66324
head 19.1558 2.61747 -2.03622
rclavicle -1.23246e-014 -1.90833e-014
rhumerus -19.8598 44.8745 -99.7646
rradius 54.985
rwrist -63.9839
rhand -38.2886 -18.548
rfingers 7.12502
rthumb -11.3176 -48.2226
lclavicle -1.23246e-014 -1.90833e-014
lhumerus -17.269 -47.6217 106.65
lradius 52.8926
lwrist 65.2446
lhand -12.7203 64.9952
lfingers 7.12502
lthumb -166.637 85.4533
rfemur -29.0496 -0.775047 15.3473
rtibia 27.72
rfoot -7.64939 -3.33706
rtoes -4.6299
lfemur -27.2978 4.25227 -9.67589
ltibia 28.2449
lfoot -11.5768 -2.38499
ltoes -16.4543
90
root -8.86846 17.9332 5.67362 -24.0692 83.9229 -38.4032
lowerback 5.46683 0.804968 0.136273
upperback 5.60524 1.21825 4.46627
thorax 2.63235 0.615021 4.51547
lowerneck -11.2979 0.328545 2.98154
upperneck 44.3872 5.15429 -5.6608
head 19.152 2.58402 -2.08661
rclavicle 7.15625e-015 -7.95139e-015
rhumerus -19.8822 44.5497 -99.7938
rradius 54.9638
rwrist -63.9012
rhand -39.211 -17.7588
rfingers 7.12502
rthumb -12.2072 -47.3826
lclavicle 7.15625e-015 -7.95139e-015
lhumerus -17.4269 -47.9046 106.755
lradius 53.0125
lwrist 65.5858
lhand -13.2549 65.5049
lfingers 7.12502
lthumb -167.153 84.9105
rfemur -29.0808 -0.867564 15.3251
rtibia 27.7096
rfoot -7.69194 -3.23174
rtoes -4.0908
lfemur -27.3211 4.22213 -9.7193
ltibia 28.2484
lfoot -11.59 -2.31986
ltoes -16.8204
91
root -8.86919 17.9348 5.67287 -24.8092 83.8778 -39.1349
lowerback 5.48713 0.881338 0.324822
upperback 5.5827 1.32678 4.41264
thorax 2.59342 0.676904 4.34752
lowerneck -11.2654 0.263381 3.15174
upperneck 44.3779 4.98998 -5.64117
head 19.1249 2.55252 -2.13862
rclavicle 1.78906e-014 3.97569e-015
rhumerus -19.8912 44.2578 -99.8295
rradius 54.9628
rwrist -63.9373
rhand -38.6632 -18.2029
rfingers 7.12502
rthumb -11.6789 -47.8573
lclavicle 1.78906e-014 3.97569e-015
lhumerus -17.595 -48.1847 106.838
lradius 52.9577
lwrist 65.3939
lhand -12.7915 64.9608
lfingers 7.12502
lthumb -166.706 85.4832
rfemur -29.054 -0.785827 15.3948
rtibia 27.6982
rfoot -7.7627 -3.24915
rtoes -2.58785
lfemur -27.3097 4.19888 -9.61119
ltibia 28.2456
lfoot -11.5623 -2.3134
ltoes -16.6504
92
root -8.87003 17.9361 5.67231 -25.6093 83.8367 -39.9237
lowerback 5.49523 0.827874 0.38315
upperback 5.60108 1.25916 4.47695
thorax 2.61316 0.644623 4.38462
lowerneck -11.26 0.305223 3.02442
upperneck 44.3325 5.07498 -5.62348
head 19.0967 2.56404 -2.08978
rclavicle 3.57812e-015 -8.74653e-015
rhumerus -19.8861 44.5 -99.7733
rradius 55.0246
rwrist -64.076
rhand -38.9587 -18.1281
rfingers 7.12502
rthumb -11.9638 -47.7663
lclavicle 3.57812e-015 -8.74653e-015
lhumerus -17.508 -47.971 106.795
lradius 53.0279
lwrist 65.4894
lhand -12.9798 65.4905
lfingers 7.12502
lthumb -166.887 84.9418
rfemur -29.0192 -0.623294 15.4437
rtibia 27.691
rfoot -7.81496 -3.34074
rtoes -1.65155
lfemur -27.2961 4.19534 -9.50036
ltibia 28.2337
lfoot -11.5109 -2.3371
ltoes -16.1118
